<svg width="0" height="0" xmlns="http://www.w3.org/2000/svg">
	<symbol id="close" viewBox="0 0 348 348">
    <path d="M336.559,68.611L231.016,174.165l105.543,105.549c15.699,15.705,15.699,41.145,0,56.85 c-7.844,7.844-18.128,11.769-28.407,11.769c-10.296,0-20.581-3.919-28.419-11.769L174.167,231.003L68.609,336.563 c-7.843,7.844-18.128,11.769-28.416,11.769c-10.285,0-20.563-3.919-28.413-11.769c-15.699-15.698-15.699-41.139,0-56.85 l105.54-105.549L11.774,68.611c-15.699-15.699-15.699-41.145,0-56.844c15.696-15.687,41.127-15.687,56.829,0l105.563,105.554 L279.721,11.767c15.705-15.687,41.139-15.687,56.832,0C352.258,27.466,352.258,52.912,336.559,68.611z"/>
  </symbol>
  <symbol id="main" viewBox="0 0 512 512">
    <path d="M224.01,0c-123.488,0-224,81.824-224,182.4c0,50.944,25.6,98.72,70.816,133.088 c-14.368,22.336-34.272,46.944-58.656,52.992c-7.712,1.92-12.864,9.216-12.064,17.12c0.768,7.936,7.296,14.048,15.232,14.4 c0.384,0,1.792,0.064,4.064,0.064c16.608,0,80.448-2.656,152.864-40.224c16.512,3.296,33.888,4.96,51.744,4.96 c123.488,0,224-81.824,224-182.4S347.498,0,224.01,0z M224.01,332.8c-17.6,0-34.592-1.824-50.56-5.44 c-3.744-0.864-7.712-0.32-11.136,1.536c-30.976,16.704-60.64,26.304-85.024,31.808C88.586,347.52,98.026,332.8,106.058,319.2 c4.352-7.36,2.112-16.832-5.024-21.504C57.162,268.96,32.01,226.944,32.01,182.4c0-82.944,86.112-150.4,192-150.4 s192,67.456,192,150.4C416.01,265.312,329.898,332.8,224.01,332.8z"/>
    <path d="M499.946,480.192c-18.304-4.64-36-19.392-52.672-43.936c41.344-32,64.736-76.064,64.736-122.976 c0-22.24-5.312-44.16-15.776-65.088c-3.968-7.936-13.664-11.04-21.472-7.136c-7.904,3.968-11.104,13.568-7.168,21.472 c8.224,16.448,12.416,33.504,12.416,50.752c0,40.576-23.04,78.976-63.2,105.344c-7.168,4.672-9.344,14.176-4.96,21.536 c7.904,13.344,16.064,24.832,24.576,34.496c-21.728-4.512-47.744-12.672-74.912-27.296c-3.36-1.824-7.328-2.336-11.04-1.536 c-64.32,14.144-133.6-2.592-176.992-40.864c-6.688-5.888-16.768-5.216-22.592,1.408c-5.856,6.624-5.216,16.736,1.408,22.592 c49.632,43.712,126.656,63.424,199.264,49.312c58.24,29.952,110.56,33.792,133.632,33.792c7.328,0,11.68-0.384,12.384-0.448 c7.744-0.736,13.856-6.944,14.432-14.688C512.586,489.152,507.498,482.112,499.946,480.192z"/>
  </symbol>
  <symbol id="chat" viewBox="0 0 512 512">
    <path d="M304,96H112c-8.832,0-16,7.168-16,16c0,8.832,7.168,16,16,16h192c8.832,0,16-7.168,16-16C320,103.168,312.832,96,304,96z"/>
    <path d="M240,160H112c-8.832,0-16,7.168-16,16c0,8.832,7.168,16,16,16h128c8.832,0,16-7.168,16-16 C256,167.168,248.832,160,240,160z"/>
    <path d="M352,0H64C28.704,0,0,28.704,0,64v320c0,6.208,3.584,11.872,9.216,14.496C11.36,399.488,13.696,400,16,400 c3.68,0,7.328-1.28,10.24-3.712L117.792,320H352c35.296,0,64-28.704,64-64V64C416,28.704,387.296,0,352,0z M384,256 c0,17.632-14.336,32-32,32H112c-3.744,0-7.36,1.312-10.24,3.712L32,349.856V64c0-17.632,14.336-32,32-32h288 c17.664,0,32,14.368,32,32V256z"/>
    <path d="M448,128c-8.832,0-16,7.168-16,16c0,8.832,7.168,16,16,16c17.664,0,32,14.368,32,32v270.688l-54.016-43.2 c-2.816-2.24-6.368-3.488-9.984-3.488H192c-17.664,0-32-14.368-32-32v-16c0-8.832-7.168-16-16-16c-8.832,0-16,7.168-16,16v16 c0,35.296,28.704,64,64,64h218.368l75.616,60.512C488.896,510.816,492.448,512,496,512c2.336,0,4.704-0.512,6.944-1.568 C508.48,507.744,512,502.144,512,496V192C512,156.704,483.296,128,448,128z"/>
  </symbol>
  <symbol id="form" viewBox="0 0 512 512">
    <path d="M448,0H64C28.704,0,0,28.704,0,64v288c0,35.296,28.704,64,64,64h32v80c0,6.208,3.584,11.872,9.216,14.496 c2.144,0.992,4.48,1.504,6.784,1.504c3.648,0,7.328-1.28,10.24-3.712L232.96,416H448c35.296,0,64-28.704,64-64V95.404v-0.012V64 C512,28.704,483.296,0,448,0z M480,352c0,17.632-14.336,32-32,32H227.2c-3.744,0-7.36,1.312-10.24,3.712L128,461.856V400 c0-8.832-7.168-16-16-16H64c-17.664,0-32-14.368-32-32V121.12l217.216,101.376c2.144,0.992,4.48,1.504,6.784,1.504 s4.64-0.512,6.784-1.504L480,121.12V352z M480,85.792L256,190.336L32,85.792V64c0-17.632,14.336-32,32-32h384 c17.664,0,32,14.368,32,32V85.792z"/>
  </symbol>
  <symbol id="call" viewBox="0 0 474 474">
    <path d="M374.456,293.506c-9.7-10.1-21.4-15.5-33.8-15.5c-12.3,0-24.1,5.3-34.2,15.4l-31.6,31.5c-2.6-1.4-5.2-2.7-7.7-4 c-3.6-1.8-7-3.5-9.9-5.3c-29.6-18.8-56.5-43.3-82.3-75c-12.5-15.8-20.9-29.1-27-42.6c8.2-7.5,15.8-15.3,23.2-22.8 c2.8-2.8,5.6-5.7,8.4-8.5c21-21,21-48.2,0-69.2l-27.3-27.3c-3.1-3.1-6.3-6.3-9.3-9.5c-6-6.2-12.3-12.6-18.8-18.6 c-9.7-9.6-21.3-14.7-33.5-14.7s-24,5.1-34,14.7c-0.1,0.1-0.1,0.1-0.2,0.2l-34,34.3c-12.8,12.8-20.1,28.4-21.7,46.5 c-2.4,29.2,6.2,56.4,12.8,74.2c16.2,43.7,40.4,84.2,76.5,127.6c43.8,52.3,96.5,93.6,156.7,122.7c23,10.9,53.7,23.8,88,26 c2.1,0.1,4.3,0.2,6.3,0.2c23.1,0,42.5-8.3,57.7-24.8c0.1-0.2,0.3-0.3,0.4-0.5c5.2-6.3,11.2-12,17.5-18.1c4.3-4.1,8.7-8.4,13-12.9 c9.9-10.3,15.1-22.3,15.1-34.6c0-12.4-5.3-24.3-15.4-34.3L374.456,293.506z M410.256,398.806 C410.156,398.806,410.156,398.906,410.256,398.806c-3.9,4.2-7.9,8-12.2,12.2c-6.5,6.2-13.1,12.7-19.3,20 c-10.1,10.8-22,15.9-37.6,15.9c-1.5,0-3.1,0-4.6-0.1c-29.7-1.9-57.3-13.5-78-23.4c-56.6-27.4-106.3-66.3-147.6-115.6 c-34.1-41.1-56.9-79.1-72-119.9c-9.3-24.9-12.7-44.3-11.2-62.6c1-11.7,5.5-21.4,13.8-29.7l34.1-34.1c4.9-4.6,10.1-7.1,15.2-7.1 c6.3,0,11.4,3.8,14.6,7c0.1,0.1,0.2,0.2,0.3,0.3c6.1,5.7,11.9,11.6,18,17.9c3.1,3.2,6.3,6.4,9.5,9.7l27.3,27.3 c10.6,10.6,10.6,20.4,0,31c-2.9,2.9-5.7,5.8-8.6,8.6c-8.4,8.6-16.4,16.6-25.1,24.4c-0.2,0.2-0.4,0.3-0.5,0.5 c-8.6,8.6-7,17-5.2,22.7c0.1,0.3,0.2,0.6,0.3,0.9c7.1,17.2,17.1,33.4,32.3,52.7l0.1,0.1c27.6,34,56.7,60.5,88.8,80.8 c4.1,2.6,8.3,4.7,12.3,6.7c3.6,1.8,7,3.5,9.9,5.3c0.4,0.2,0.8,0.5,1.2,0.7c3.4,1.7,6.6,2.5,9.9,2.5c8.3,0,13.5-5.2,15.2-6.9 l34.2-34.2c3.4-3.4,8.8-7.5,15.1-7.5c6.2,0,11.3,3.9,14.4,7.3c0.1,0.1,0.1,0.1,0.2,0.2l55.1,55.1 C420.456,377.706,420.456,388.206,410.256,398.806z"/>
    <path d="M256.056,112.706c26.2,4.4,50,16.8,69,35.8s31.3,42.8,35.8,69c1.1,6.6,6.8,11.2,13.3,11.2c0.8,0,1.5-0.1,2.3-0.2 c7.4-1.2,12.3-8.2,11.1-15.6c-5.4-31.7-20.4-60.6-43.3-83.5s-51.8-37.9-83.5-43.3c-7.4-1.2-14.3,3.7-15.6,11 S248.656,111.506,256.056,112.706z"/>
    <path d="M473.256,209.006c-8.9-52.2-33.5-99.7-71.3-137.5s-85.3-62.4-137.5-71.3c-7.3-1.3-14.2,3.7-15.5,11 c-1.2,7.4,3.7,14.3,11.1,15.6c46.6,7.9,89.1,30,122.9,63.7c33.8,33.8,55.8,76.3,63.7,122.9c1.1,6.6,6.8,11.2,13.3,11.2 c0.8,0,1.5-0.1,2.3-0.2C469.556,223.306,474.556,216.306,473.256,209.006z"/>
  </symbol>
  <symbol id="success" viewBox="0 0 512 512">
      <path d="M497.36,69.995c-7.532-7.545-19.753-7.558-27.285-0.032L238.582,300.845l-83.522-90.713 c-7.217-7.834-19.419-8.342-27.266-1.126c-7.841,7.217-8.343,19.425-1.126,27.266l97.126,105.481 c3.557,3.866,8.535,6.111,13.784,6.22c0.141,0.006,0.277,0.006,0.412,0.006c5.101,0,10.008-2.026,13.623-5.628L497.322,97.286 C504.873,89.761,504.886,77.54,497.36,69.995z"/>
      <path d="M492.703,236.703c-10.658,0-19.296,8.638-19.296,19.297c0,119.883-97.524,217.407-217.407,217.407 c-119.876,0-217.407-97.524-217.407-217.407c0-119.876,97.531-217.407,217.407-217.407c10.658,0,19.297-8.638,19.297-19.296 C275.297,8.638,266.658,0,256,0C114.84,0,0,114.84,0,256c0,141.154,114.84,256,256,256c141.154,0,256-114.846,256-256 C512,245.342,503.362,236.703,492.703,236.703z"/>
  </symbol>
</svg>